<mxfile host="app.diagrams.net" modified="2024-04-13T07:28:12.852Z" agent="Mozilla/5.0 (Windows NT 10.0; Win64; x64) AppleWebKit/537.36 (KHTML, like Gecko) Chrome/123.0.0.0 Safari/537.36" version="24.2.3" etag="jqqaQZP5EdIyNHj9d9CQ" type="github">
  <diagram name="第 1 页" id="KDBL9Iz6ZE5VcB7rD-Co">
    <mxGraphModel>
      <root>
        <mxCell id="0" />
        <mxCell id="1" parent="0" />
      </root>
    </mxGraphModel>
  </diagram>
</mxfile>
